<svg height="512" viewBox="0 0 512 512" width="512" xmlns="http://www.w3.org/2000/svg"><g id="Filled_outline" data-name="Filled outline"><path d="m240 352-5.716 57.164a32 32 0 0 1 -24.646 28l-81.638 18.836-16-32 72-24-16-56-104 80-24-32 120-120z" fill="#4d5e78"/><path d="m128 456-6.026 24.105a10.423 10.423 0 0 1 -10.112 7.895 10.423 10.423 0 0 1 -10.022-7.56l-13.84-48.44 24-8z" fill="#6e3d26"/><path d="m40 392-16 16v54.111a9.888 9.888 0 0 0 9.889 9.889 9.888 9.888 0 0 0 8.844-5.466l21.267-42.534z" fill="#6e3d26"/><path d="m329.775 159.029h124.451v33.941h-124.451z" fill="#404f66" transform="matrix(.707 -.707 .707 .707 -9.637 328.735)"/><path d="m448 144 33.289-26.632a17.878 17.878 0 0 0 6.711-13.962 17.88 17.88 0 0 0 -5.237-12.643l-6.12-6.12a17.881 17.881 0 0 0 -25.286 0l-11.357 11.357-8-8-8 8v24z" fill="#fec9a3"/><path d="m391.03 167.03a24 24 0 0 1 0 33.94l-31.03 31.03-80-80 40-40 80 16-24 24 13.72 13.72z" fill="#fec9a3"/><path d="m392 88-24-24-88 88-120 120 80 80 48-48 24-24 48-48-56-56z" fill="#4d5e78"/><path d="m368 64 26.632-33.289a17.878 17.878 0 0 1 13.962-6.711 17.88 17.88 0 0 1 12.643 5.237l6.12 6.12a17.881 17.881 0 0 1 0 25.286l-11.357 11.357 8 8-8 8h-24z" fill="#fec9a3"/><path d="m273.14 112.01a113.106 113.106 0 0 1 -33.14 79.99l-80 80-64-64 45.52-42.48 24.83-23.17 17.05-15.92a113.106 113.106 0 0 1 77.19-30.43h11.41a113.63 113.63 0 0 1 1.14 16.01z" fill="#f35244"/><path d="m263.43 157.86a113.212 113.212 0 0 1 -23.43 34.14l-80 80-49.81-49.81a464.142 464.142 0 0 0 153.24-64.33z" fill="#e64c3f"/><path d="m112 224-32 16 40 40 16-32z" fill="#348fd9"/><path d="m312 280-24 24-42.5-40.18-103.98-98.3 24.83-23.17 109.71 103.69z" fill="#ffb531"/><path d="m312 280-24 24-42.5-40.18q15.465-8.265 30.56-17.78z" fill="#fcac1f"/><path d="m8 384 72-72h8a32 32 0 0 0 32-32l-40-40a32 32 0 0 0 -32 32v8l-40 40z" fill="#ffb531"/><path d="m360 232-55.02 18.34-16.98 5.66 2.83-14.15 13.17-65.85 26.34 26.34 11.32 11.32z" fill="#e0e0de"/><path d="m96 208-32-32 24-16 53.52 5.52z" fill="#348fd9"/><path d="m160 272 32 32 24-24-16-48z" fill="#348fd9"/><path d="m167.787 473h42.426v16h-42.426z" transform="matrix(.707 -.707 .707 .707 -284.762 274.525)"/><path d="m488.42 85.106-6.12-6.12a25.911 25.911 0 0 0 -36.6 0l-5.7 5.7-2.343-2.344a7.976 7.976 0 0 0 -5.657-2.342 7.976 7.976 0 0 0 -2.343-5.657l-2.344-2.343 5.7-5.7a25.911 25.911 0 0 0 0-36.6l-6.12-6.12a25.881 25.881 0 0 0 -38.51 2.133l-26.355 32.945-75.435 75.435 11.314 11.314 70.093-70.094 12.687 12.687-82.344 82.343a7.959 7.959 0 0 0 -2.187 4.088v.024.03l-13.377 66.881-41.562-39.266 4.44-4.44a121.086 121.086 0 0 0 34.263-102.787 8 8 0 0 0 -7.92-6.873h-11.41a120.711 120.711 0 0 0 -82.65 32.583l10.919 11.695a104.764 104.764 0 0 1 71.731-28.278h4.242c.2 2.678.308 5.355.308 8.01a104.728 104.728 0 0 1 -12.378 49.438l-31.1-31.105-11.314 11.314 33.613 33.612c-2.94 3.9-14.372 15.834-14.372 15.834l-57.739-54.567a8 8 0 0 0 -10.953-.035l-22.17 20.688-49.9-5.147a8.023 8.023 0 0 0 -5.259 1.3l-24 16a8 8 0 0 0 -1.219 12.313l32 32 8.152 8.151-20.49 10.244a40.05 40.05 0 0 0 -38.011 39.95v4.687l-37.657 37.656 11.314 11.314 40-40a8 8 0 0 0 2.343-5.657v-8a24.029 24.029 0 0 1 20.894-23.792l34.9 34.9a24.032 24.032 0 0 1 -23.794 20.892h-8a8 8 0 0 0 -5.657 2.343l-72 72 11.314 11.314 69.657-69.657h4.686a39.768 39.768 0 0 0 16.067-3.38l-69.724 69.723-16 16a8 8 0 0 0 -2.343 5.657v54.111a17.888 17.888 0 0 0 33.888 8l20.446-40.89 93.209-71.7 10.657 37.312-64.73 21.578-24 8a8 8 0 0 0 -5.162 9.787l13.84 48.44a18.423 18.423 0 0 0 35.587-.593l4.838-19.352 76.864-17.737a39.98 39.98 0 0 0 30.807-35l5.432-54.323 205.666-205.661 32.946-26.357a25.881 25.881 0 0 0 2.132-38.509zm-109.7-21.7 22.158-27.7a9.881 9.881 0 0 1 14.7-.814l6.12 6.12a9.879 9.879 0 0 1 0 13.972l-5.7 5.7-10.341-10.341-11.314 11.314 18.344 18.343h-17.373zm16.593 32.594h20.687v20.687l-8.522 8.522a7.991 7.991 0 0 0 -5.909-5.054l-25.342-5.068zm-253.828 80.5 52.794 49.911-34.279 34.276-52.487-52.487zm55.015 70.31 10.343 31.029-14.843 14.848-20.687-20.687zm-100.308-49.932-19.635-19.635 13.485-8.99 33.159 3.42zm-2.687 45.313 16.915-8.457 15.846 15.846-8.457 16.92zm-57.928 220.766a1.888 1.888 0 0 1 -3.577-.846v-50.8l7.134-7.134 15.5 20.666zm78.635 15.208a2.422 2.422 0 0 1 -4.679.078l-11.733-41.076 10.152-3.383 11.573 23.147zm112.111-69.8a23.988 23.988 0 0 1 -18.484 21l-75.5 17.423-9.057-18.117 63.249-21.083a8 8 0 0 0 5.162-9.787l-16-56a8 8 0 0 0 -12.569-4.143l-97.583 75.064-14.978-19.972 99.76-99.76-11.313-11.313-14.39 14.39a39.732 39.732 0 0 0 3.33-14.078l10.242-20.484 93.47 93.471zm13.677-67.678-36.687-36.687 18.344-18.343a8 8 0 0 0 1.932-8.187l-11.366-34.1 64.3 60.79zm47.843-47.844-134.637-127.284 13.11-12.234 134.208 126.837zm21.07-100.616 15.774 15.773-23.66 23.66zm2.93 76.617-9.667-9.137 28.2-9.4zm5.776-31.15 18.381-18.381 9.19 9.191zm67.759-42.386-25.378 25.378-44.687-44.686 47.316-47.316 21.144 4.229-13.43 13.43a8 8 0 0 0 0 11.314l5.033 5.032-.384.384a16.8 16.8 0 0 1 -19.414 3.151l-7.156 14.31a32.774 32.774 0 0 0 37.884-6.147l.3-.3a16.016 16.016 0 0 1 -1.228 21.221zm19.578-19.578a31.8 31.8 0 0 0 -8.269-14.357l-1.374-1.373 28.687-28.686 12.686 12.686zm71.336-64.608-27.7 22.158-16.592-16.594v-17.373l18.343 18.344 11.314-11.314-10.344-10.343 5.7-5.7a9.879 9.879 0 0 1 13.972 0l6.12 6.12a9.881 9.881 0 0 1 -.814 14.7z"/><path d="m250.384 280.5h202.233v16h-202.233z" transform="matrix(.707 -.707 .707 .707 -101.048 333.048)"/><path d="m285.455 56.25h68.589v16h-68.589z" transform="matrix(.707 -.707 .707 .707 48.221 244.916)"/><path d="m96.81 88.5h117.38v16h-117.38z" transform="matrix(.707 -.707 .707 .707 -22.691 138.219)"/><path d="m9.526 212.75h54.447v16h-54.447z" transform="matrix(.707 -.707 .707 .707 -145.33 90.642)"/><path d="m250.461 348h147.078v16h-147.078z" transform="matrix(.707 -.707 .707 .707 -156.833 333.373)"/></g></svg>