<svg id="Layer_3" height="512" viewBox="0 0 64 64" width="512" xmlns="http://www.w3.org/2000/svg" data-name="Layer 3"><g fill="#f2b1b0"><path d="m22 14.712h-2.5a2.5 2.5 0 0 0 -2.5 2.5 2.5 2.5 0 0 0 2.5 2.5h2.5"/><path d="m42 14.712h2.5a2.5 2.5 0 0 1 2.5 2.5 2.5 2.5 0 0 1 -2.5 2.5h-2.5"/><path d="m21 8.712h22v6h-22z"/><path d="m39 32.712s-19 28.99-19 29h6l17.29-27z"/></g><path d="m2 63h60a1 1 0 0 0 .939-1.342l-8-22a1.007 1.007 0 0 0 -.517-.565l-15-7a.992.992 0 0 0 -.422-.093h-1v-2.791a11 11 0 0 0 4.949-8.209h1.551a3.5 3.5 0 0 0 0-7h-.5v-5a1 1 0 0 0 -1-1h-.755a11 11 0 0 0 -20.49 0h-.755a1 1 0 0 0 -1 1v5h-.5a3.5 3.5 0 0 0 0 7h1.551a11 11 0 0 0 4.949 8.208v2.792h-1a1 1 0 0 0 -.423.094l-15 7a1 1 0 0 0 -.517.565l-8 22a1 1 0 0 0 .94 1.341zm27.907-17.947-1.407 2.147-6.446-11.722 2.487-1.16zm9.453-10.781 2.474 1.154-16.382 25.574h-3.6c1.672-2.554 6.048-9.24 17.508-26.728zm21.211 26.728h-9.571v-15h-2v15h-21.172l15.835-24.72 9.537 4.45zm-38.571-47v-4h20v4zm24 3.5a1.5 1.5 0 0 1 -1.5 1.5h-1.5v-3h1.5a1.5 1.5 0 0 1 1.5 1.5zm-14-14.5a8.957 8.957 0 0 1 8.065 5h-16.13a8.957 8.957 0 0 1 8.065-5zm-14 14.5a1.5 1.5 0 0 1 1.5-1.5h1.5v3h-1.5a1.5 1.5 0 0 1 -1.5-1.5zm5 2.5v-4h18v4a9 9 0 0 1 -18 0zm9 11a10.921 10.921 0 0 0 4-.763v2.763a1 1 0 0 0 1 1h.149l-5.973 9.117-4.558-9.117h.382a1 1 0 0 0 1-1v-2.763a10.927 10.927 0 0 0 4 .763zm-21.2 9.73 9.439-4.4 7.021 12.77-7.799 11.9h-4.461v-15h-2v15h-9.572z" fill="#b0414c"/></svg>