<?xml version="1.0" encoding="iso-8859-1"?>
<!-- Generator: Adobe Illustrator 22.1.0, SVG Export Plug-In . SVG Version: 6.00 Build 0)  -->
<svg xmlns="http://www.w3.org/2000/svg" xmlns:xlink="http://www.w3.org/1999/xlink" version="1.1" id="Layer_1_1_" x="0px" y="0px" viewBox="0 0 64 64" style="enable-background:new 0 0 64 64;" xml:space="preserve" width="512" height="512">
<linearGradient id="SVGID_1_" gradientUnits="userSpaceOnUse" x1="32" y1="63" x2="32" y2="1.5859">
	<stop offset="0" style="stop-color:#9F2FFF"/>
	<stop offset="1" style="stop-color:#0BB1D3"/>
</linearGradient>
<path style="fill:url(#SVGID_1_);" d="M24,24c0,0.552-0.448,1-1,1s-1-0.448-1-1c0-0.552,0.448-1,1-1S24,23.448,24,24z M33,23  c-0.552,0-1,0.448-1,1c0,0.552,0.448,1,1,1s1-0.448,1-1C34,23.448,33.552,23,33,23z M54.414,24L59,28.586v1.828L56.414,33h-1.828  L54.5,32.914L51.414,36L53,37.586v1.828L50.414,42h-1.828L48,41.414l-2.233,2.233C47.731,44.913,49,47.11,49,49.525V63H7V49.525  c0-3.109,2.088-5.877,5.077-6.73L21,40.246v-3.117c-1.647-1.617-2.735-3.797-2.954-6.226C15.744,30.456,14,28.43,14,26v-4.413  C12.775,23.627,10.548,25,8,25H5v-1c0-2.548,1.373-4.775,3.413-6C6.373,16.775,5,14.548,5,12v-1h3c1.775,0,3.393,0.669,4.628,1.762  l-1.003-2.507L17,9.181V3.612l6.73,2.243L28,1.586l4.27,4.27L39,3.612v5.568l5.375,1.074l-2.09,5.225C42.719,15.848,43,16.389,43,17  v2c0,0.737-0.405,1.375-1,1.722V26c0,2.43-1.744,4.456-4.046,4.904c-0.219,2.429-1.307,4.609-2.954,6.226v3.117l1.043,0.298  L41.586,35L41,34.414v-1.828L43.586,30h1.828L47,31.586l3.086-3.086L50,28.414v-1.828L52.586,24H54.414z M15,19h1h24h1.001L41,17H15  v1V19z M38,21.101c0.743,0.152,1.416,0.482,2,0.924V21h-2V21.101z M16,21v1.026c0.584-0.442,1.257-0.773,2-0.924V21H16z M20,27h16  v-6H20V27z M40,26c0-1.302-0.839-2.402-2-2.816v5.631C39.161,28.402,40,27.302,40,26z M14.375,11.745L15.677,15h24.646l1.302-3.255  L37,10.819V6.388l-5.27,1.757L28,4.414l-3.73,3.73L19,6.388v4.432L14.375,11.745z M12,17h0.899c-0.464-2.279-2.485-4-4.899-4H7.101  C7.565,15.279,9.585,17,12,17z M12.899,19H12c-2.415,0-4.435,1.721-4.899,4H8C10.415,23,12.435,21.279,12.899,19z M18,28.816v-5.631  c-1.161,0.414-2,1.514-2,2.816S16.839,28.402,18,28.816z M28,38c4.411,0,8-3.589,8-8v-1H20v1C20,34.411,23.589,38,28,38z M23,38.647  v1.884C23.625,41.002,25.267,42,28,42c2.733,0,4.375-0.998,5-1.469v-1.884C31.527,39.502,29.822,40,28,40S24.473,39.502,23,38.647z   M25,48.586L26.586,47L25,45.414V48.586z M28,45.586l1.714-1.714C29.181,43.948,28.617,44,28,44s-1.181-0.052-1.714-0.128L28,45.586  z M25.414,51L28,53.586L30.586,51L28,48.414L25.414,51z M31,45.414L29.414,47L31,48.586V45.414z M13.568,44.45  C15.783,47.655,17,51.493,17,55.403V61h22v-5.597c0-3.91,1.216-7.748,3.432-10.954l-8.201-2.344  c-0.283,0.213-0.698,0.486-1.232,0.758v8.551l-5,5l-5-5v-8.551c-0.534-0.272-0.948-0.545-1.232-0.758L13.568,44.45z M9,61h6v-5.597  c0-3.684-1.209-7.292-3.393-10.249C10.036,46.019,9,47.682,9,49.525V61z M44.393,45.154C42.209,48.111,41,51.719,41,55.403V61h6  V49.525C47,47.682,45.964,46.019,44.393,45.154z M46.586,40L43,36.414l-4.758,4.758l5.578,1.593L46.586,40z M51,38.414L44.586,32  h-0.172L43,33.414v0.172L49.414,40h0.172L51,38.586V38.414z M53.086,31.5L51.5,29.914L48.414,33L50,34.586L53.086,31.5z M57,29.414  L53.586,26h-0.172L52,27.414v0.172L55.414,31h0.172L57,29.586V29.414z"/>
</svg>
