<svg id="Layer_1" enable-background="new 0 0 511.99 511.99" height="512" viewBox="0 0 511.99 511.99" width="512" xmlns="http://www.w3.org/2000/svg"><g><g clip-rule="evenodd" fill-rule="evenodd"><path d="m182.912 196.928c13.7-19.086 29.386-39.244 47.198-60.436 11.13-13.242 22.549-25.259 34.096-36.133-81.507-4.537-140.36 16.87-81.294 96.569z" fill="#ff9171"/><path d="m295.657 73.657c24.684 29.991 50.291 51.578 75.789 67.413 8.531-2.735 15.047-2.054 16.93 3.68-.215 1.923-.438 3.815-.669 5.677 22.675 12.053 45.089 19.974 66.506 25.645 40.571-70.743 42.662-130.348 36.878-151.934-6.523-24.345-100.48-22.86-195.434 49.519z" fill="#ff9171"/><path d="m317.794 223.436c-28.23-23.762 24.489-73.018 53.653-82.366-25.498-15.834-51.105-37.422-75.79-67.413-10.511 8.012-21.033 16.892-31.451 26.702-11.548 10.874-22.967 22.891-34.096 36.133-17.812 21.192-33.498 41.35-47.198 60.436-44.988 62.673-68.558 113.775-75.636 151.897-4.306 23.192-2.507 41.579 4.286 54.843 7.247 14.149 29.23 14.52 59.21 4.742 9.44-3.079 19.673-7.165 30.488-12.143 26.894-12.38 57.39-30.284 88.25-51.967 18.771-13.19 37.676-27.778 55.988-43.373 14.363-12.232 28.362-25.084 41.644-38.366 8.196-8.196 15.794-16.384 22.836-24.53 18.27-21.137 32.786-41.991 44.237-61.958-21.418-5.671-43.831-13.592-66.506-25.645-9.796 78.839-34.268 103.013-69.915 73.008z" fill="#ff764e"/><g fill="#ff9171"><path d="m371.447 141.07c-29.164 9.347-81.883 58.603-53.653 82.366 35.647 30.005 60.12 5.831 69.914-73.009-5.409-2.875-10.833-5.985-16.261-9.357z"/><path d="m387.141 262.56c-13.282 13.282-27.28 26.134-41.644 38.366 37.703 16.262 80.049 23.321 64.479-62.896-7.041 8.147-14.639 16.335-22.835 24.53z"/><path d="m284.933 398.79c21.537-7.674 12.223-37.239 4.576-54.491-30.86 21.684-61.355 39.587-88.25 51.967 24.502 13.106 56.549 12.19 83.674 2.524z"/><path d="m170.771 408.41c-29.98 9.779-51.963 9.408-59.21-4.742-6.793-13.265-8.592-31.652-4.286-54.843h-71.93c-9.282 0-16.808 7.525-16.807 16.807 0 17.988 3.615 35.71 10.446 52.203 6.811 16.441 16.773 31.499 29.491 44.217s27.776 22.68 44.216 29.491c16.494 6.832 34.215 10.447 52.203 10.447 9.282 0 16.808-7.526 16.807-16.807z"/></g></g><g><path d="m500.751 21.549c-1.796-6.703-7.714-15.533-25.704-19.529-26.627-5.915-68.664 1.375-109.714 19.024-27.689 11.904-65.615 32.944-104.847 69.127-57.846-2.621-93.705 8.118-106.561 31.954-10.215 18.939-4.591 44.082 16.69 74.79-26.345 37.34-46.109 72.034-59.005 103.667-5.512 13.52-9.65 26.298-12.427 38.243h-63.837c-7.161 0-13.893 2.789-18.956 7.852s-7.852 11.795-7.852 18.955c0 19.222 3.771 38.073 11.208 56.031 1.128 2.724 2.354 5.45 3.646 8.102 1.731 3.558 5.292 5.627 8.999 5.627 1.468 0 2.959-.325 4.368-1.011 4.966-2.417 7.033-8.401 4.616-13.367-1.116-2.293-2.176-4.65-3.151-7.004-6.427-15.518-9.686-31.794-9.686-48.377 0-1.818.708-3.527 1.994-4.813s2.995-1.994 4.813-1.994h60.371c-.559 5.195-.797 10.18-.734 14.956l-13.124 2.763c-5.404 1.138-8.863 6.441-7.726 11.846.992 4.71 5.146 7.942 9.775 7.942.683 0 1.376-.07 2.07-.216l11.378-2.396c1.248 5.141 2.981 9.924 5.212 14.317l-12.721 12.721c-3.905 3.905-3.905 10.237 0 14.143 1.953 1.953 4.512 2.929 7.071 2.929s5.119-.976 7.071-2.929l13.241-13.241c2.513 1.096 5.401 1.982 8.693 2.584l.246 13.765c.098 5.461 4.555 9.821 9.995 9.821.061 0 .121 0 .182-.001 5.522-.099 9.918-4.655 9.82-10.177l-.235-13.17c4.829-.583 9.857-1.556 14.999-2.828l.772 63.578c-.012 1.8-.719 3.491-1.994 4.765-1.286 1.286-2.996 1.994-4.813 1.994-16.585 0-32.861-3.259-48.376-9.685-2.36-.978-4.715-2.038-6.999-3.149-4.967-2.417-10.952-.351-13.368 4.615-2.417 4.966-.351 10.951 4.615 13.368 2.643 1.286 5.367 2.512 8.098 3.643 17.954 7.437 36.805 11.208 56.03 11.208 7.16 0 13.892-2.789 18.956-7.852s7.852-11.795 7.852-18.956c0-.041 0-.081 0-.121l-.844-69.554c6.778-2.453 13.571-5.234 20.212-8.192 12.673 5.814 27.361 8.748 42.769 8.748 14.546 0 29.729-2.607 44.451-7.852 7.995-2.849 13.915-8.274 17.12-15.689 4.746-10.98 3.506-26.004-3.643-44.705 15.476-11.133 30.765-23.005 45.485-35.329 10.999 4.408 23.991 8.518 36.249 8.518 8.731 0 17.091-2.087 24.08-7.637 14.787-11.742 19.063-35.46 13.039-72.441 40.224-47.63 60.341-91.799 70.327-122.528 14.464-44.515 14.321-79.995 9.804-96.853zm-329.224 110.071c7.341-13.61 32.042-21.269 69.021-21.793-6.047 6.362-12.089 13.087-18.094 20.231-14.263 16.97-27.37 33.507-39.324 49.588-10.436-16.356-18.504-35.232-11.603-48.026zm66.238 11.306c18.843-22.419 38.03-40.645 56.482-55.454 17.564 20.228 36.679 37.7 57.02 52.157-20.004 11.807-41.127 32.259-48.606 52.089-5.917 15.688-2.829 29.669 8.694 39.368 11.735 9.878 22.896 14.838 33.33 14.838 4.123 0 8.132-.775 12.017-2.326 18.987-7.582 31.796-33.177 38.959-78.009 13.612 6.415 27.906 11.874 43.221 16.52-14.27 22.927-33.33 47.897-58.812 73.38-87.545 87.546-198.933 149.647-243.9 149.642-2.154 0-4.162-.143-6.001-.433-6.672-1.05-8.735-3.692-9.707-5.589-9.846-19.225-6.413-51.535 9.667-90.977 19.239-47.189 56.458-104.316 107.636-165.206zm139.951 6.806c-7.611 60.605-22.318 72.851-28.432 75.292-6.333 2.527-14.762-.579-25.051-9.239-2.266-1.907-8.285-6.974-.981-21.209 5.561-10.839 17.042-23.132 30.713-32.883 11.088-7.908 19.408-11.119 23.751-11.961zm-90.664 234.854c-.674 1.56-1.906 3.513-5.475 4.785-18.554 6.611-37.751 8.338-54.52 5.255 7.373-3.893 14.143-7.699 19.956-11.09 12.478-7.279 25.129-15.279 37.75-23.836 3.58 10.915 4.464 19.853 2.289 24.886zm108.091-86.881c-5.655 4.49-15.897 4.396-30.502-.221 10.284-9.149 20.19-18.47 29.571-27.851 2.988-2.988 5.871-5.968 8.694-8.942 1.865 24.836-3.711 33.796-7.763 37.014zm76.782-185.488c-4.727 14.545-11.888 32.308-22.668 52.104-18.364-5.293-35.109-11.76-50.886-19.655-.009-1.03-.17-2.054-.493-3.037-2.429-7.396-8.932-11.92-17.396-12.104-.166-.003-.332-.005-.5-.005-2.092 0-4.369.278-6.784.805-22.887-14.7-43.573-32.75-62.988-54.983 23.68-16.997 45.522-28.402 63.023-35.925 44.743-19.236 80.474-21.651 97.478-17.874 8.24 1.831 10.554 4.553 10.723 5.182 3.066 11.448 4.515 42.336-9.509 85.492z"/><path d="m372.046 58.043-.006.007c-5.637 6.07-5.283 15.558.788 21.195 2.888 2.682 6.548 4.007 10.202 4.007 4.027 0 8.044-1.612 11-4.795 5.637-6.07 5.286-15.562-.785-21.198-6.07-5.638-15.561-5.287-21.199.784z"/><path d="m58.483 452.052h-.007c-5.523 0-9.996 4.477-9.996 10s4.48 10 10.003 10 10-4.477 10-10-4.477-10-10-10z"/><path d="m229.684 232.647c1.714.551 2.07.666 3.063 1.659s1.107 1.349 1.659 3.063c.854 2.656 2.146 6.669 6.555 11.078s8.423 5.701 11.079 6.555c1.714.552 2.07.667 3.063 1.659.993.993 1.107 1.349 1.659 3.063.854 2.656 2.146 6.67 6.555 11.079 4.409 4.408 8.423 5.7 11.079 6.555 1.714.551 2.071.666 3.063 1.658.992.993 1.107 1.349 1.659 3.063.854 2.656 2.146 6.67 6.555 11.079 1.953 1.953 4.512 2.929 7.071 2.929s5.118-.977 7.071-2.929c3.905-3.905 3.905-10.237 0-14.142-.992-.993-1.107-1.349-1.659-3.063-.854-2.656-2.146-6.67-6.555-11.079s-8.422-5.701-11.079-6.555c-1.714-.552-2.071-.667-3.063-1.658-.992-.993-1.107-1.349-1.659-3.063-.854-2.656-2.146-6.67-6.555-11.079s-8.422-5.701-11.079-6.555c-1.714-.552-2.07-.667-3.063-1.659-.992-.993-1.107-1.349-1.659-3.063-.854-2.656-2.146-6.67-6.556-11.079-4.409-4.409-8.422-5.7-11.078-6.555-1.714-.551-2.07-.666-3.063-1.658-3.905-3.905-10.237-3.905-14.142 0s-3.905 10.237 0 14.142c4.41 4.409 8.423 5.701 11.079 6.555z"/><path d="m180.86 303.827c1.714.552 2.07.667 3.063 1.659.992.992 1.107 1.349 1.659 3.063.854 2.656 2.146 6.67 6.555 11.079 4.409 4.408 8.422 5.7 11.079 6.555 1.714.551 2.071.666 3.063 1.658s1.107 1.349 1.659 3.063c.854 2.656 2.146 6.67 6.555 11.079 1.953 1.953 4.512 2.929 7.071 2.929s5.118-.977 7.071-2.929c3.905-3.905 3.905-10.237 0-14.142-.992-.992-1.107-1.349-1.658-3.063-.854-2.656-2.146-6.67-6.555-11.079s-8.422-5.7-11.079-6.555c-1.714-.551-2.07-.667-3.063-1.658-.992-.993-1.107-1.349-1.659-3.063-.854-2.656-2.146-6.67-6.555-11.079s-8.422-5.701-11.078-6.555c-1.714-.552-2.07-.667-3.063-1.659-3.904-3.905-10.236-3.905-14.142 0-3.905 3.905-3.906 10.236 0 14.142 4.407 4.408 8.421 5.7 11.077 6.555z"/></g></g></svg>