<?xml version='1.0' encoding='iso-8859-1'?>
<svg version="1.1" xmlns="http://www.w3.org/2000/svg" viewBox="0 0 297.333 297.333" xmlns:xlink="http://www.w3.org/1999/xlink" enable-background="new 0 0 297.333 297.333">
  <g>
    <path d="m264.667,148.167c-12.669,0-23.555-7.257-28.917-17.835-5.361,10.578-16.289,17.835-28.958,17.835s-23.618-7.257-28.979-17.835c-5.361,10.578-16.321,17.835-28.99,17.835-12.669,0-23.634-7.257-28.995-17.835-5.361,10.578-16.328,17.835-28.997,17.835s-23.637-7.257-28.999-17.835c-5.361,10.578-16.497,17.835-29.166,17.835-5.612,0-10.666-1.424-15.666-3.929v120.429h-17v32h297v-32h-16v-121.004c-5,2.858-10.309,4.504-16.333,4.504zm-115.667,17.5h99v49h-99v-49zm-99,0h66v82h-66v-82z"/>
    <path d="m297.333,116.666l-.024-.051c0,0.018 0,0.034-0.001,0.051h0.025z"/>
    <path d="m.333,116.666h0.025c-0.001-0.016-0.001-0.031-0.001-0.048l-.024,.048z"/>
    <polygon points="62.651,115.666 83.666,49.667 128.029,49.667 118.971,115.666 178.699,115.666 169.855,49.667 215.556,49.667    235.038,115.666 296.855,115.666 265,49.667 265,0.666 34,0.666 34,49.667 0.841,115.666  "/>
  </g>
</svg>
