<svg height="682pt" viewBox="-162 -21 682 682.66669" width="682pt" xmlns="http://www.w3.org/2000/svg"><path d="m-9.082031 640h188.234375v-640h-188.234375zm18.820312-18.824219v-192.9375h79.195313l71.398437-71.398437v264.335937zm150.59375-602.351562v61.175781h-9.414062v18.824219h9.414062v231.394531l-79.195312 79.195312h-71.398438v-310.589843h9.414063v-18.824219h-9.414063v-61.175781zm0 0"/><path d="m113.269531 80h18.824219v18.824219h-18.824219zm0 0"/><path d="m75.625 80h18.820312v18.824219h-18.820312zm0 0"/><path d="m37.976562 80h18.824219v18.824219h-18.824219zm0 0"/><path d="m28.5625 505.882812h56.46875v18.824219h-56.46875zm0 0"/><path d="m28.5625 543.53125h37.648438v18.820312h-37.648438zm0 0"/><path d="m28.5625 581.175781h18.824219v18.824219h-18.824219zm0 0"/><path d="m226.417969 9.414062-9.617188 432.730469v197.855469h56.46875v-197.648438l-12.019531-432.9375zm17.570312 56.585938 10.457031 376.480469v68.105469h-18.820312v-68.128907zm10.457031 463.414062v21.171876h-18.820312v-21.171876zm-18.820312 91.761719v-51.761719h18.820312v51.761719zm0 0"/><path d="m336.699219 9.414062h-34.832031l-9.613282 432.730469-.003906 197.855469h56.46875v-197.648438zm-17.261719 56.585938 10.457031 376.480469v68.105469h-18.820312v-68.128907zm10.457031 463.414062v21.171876h-18.820312v-21.171876zm-18.820312 91.761719v-51.761719h18.820312v51.761719zm0 0"/></svg>