<?xml version="1.0" encoding="iso-8859-1"?>
<!-- Generator: Adobe Illustrator 19.0.0, SVG Export Plug-In . SVG Version: 6.00 Build 0)  -->
<svg version="1.1" id="Capa_1" xmlns="http://www.w3.org/2000/svg" xmlns:xlink="http://www.w3.org/1999/xlink" x="0px" y="0px"
	 viewBox="0 0 512 512" style="enable-background:new 0 0 512 512;" xml:space="preserve">
<path style="fill:#ECEFF1;" d="M464,224H48c-8.832,0-16,7.168-16,16v112c0,35.296,28.704,64,64,64h320c35.296,0,64-28.704,64-64V240
	C480,231.168,472.832,224,464,224z"/>
<path style="fill:#FB8C00;" d="M304,96H112C50.24,96,0,146.24,0,208c0,26.464,21.536,48,48,48h207.008
	c81.6,0,162.176,21.408,233.056,61.92c2.464,1.408,5.184,2.08,7.936,2.08c2.784,0,5.568-0.704,8.032-2.144
	C508.96,314.976,512,309.728,512,304C512,189.312,418.688,96,304,96z"/>
<g>
	<path style="fill:#FFB74D;" d="M308.928,99.072l-3.584-3.008c-0.448,0-0.896-0.064-1.344-0.064h-33.856
		c-22.72,28.896-49.856,77.344-58.816,151.328L210.272,256h32.224l0.576-4.8c8.512-70.56,34.944-114.976,55.616-139.84
		L308.928,99.072z"/>
	<path style="fill:#FFB74D;" d="M369.856,262.624c4.576-49.056,17.792-91.584,39.328-126.432l5.088-8.256
		c-9.024-5.664-18.432-10.816-28.32-15.072l-4.032,6.496c-24.128,39.072-38.912,86.272-43.936,140.256l-0.384,3.936
		c10.592,1.888,21.088,4.128,31.52,6.72L369.856,262.624z"/>
	<path style="fill:#FFB74D;" d="M99.328,247.328L98.272,256h32.224l0.576-4.8c8.512-70.56,34.944-114.976,55.616-139.84
		l10.24-12.288L193.248,96h-35.104C135.392,124.896,108.256,173.344,99.328,247.328z"/>
</g>
<g>
</g>
<g>
</g>
<g>
</g>
<g>
</g>
<g>
</g>
<g>
</g>
<g>
</g>
<g>
</g>
<g>
</g>
<g>
</g>
<g>
</g>
<g>
</g>
<g>
</g>
<g>
</g>
<g>
</g>
</svg>
